<svg fill="currentColor" xmlns="http://www.w3.org/2000/svg" width="984" height="1187" viewBox="0 0 984 1187" version="1.1">
	<path d="M -0 14.878 L -0 29.756 30.750 30.274 C 63.828 30.831, 73.065 31.849, 88.172 36.605 C 112.838 44.370, 133.089 59.284, 141.394 75.800 C 147.929 88.794, 152.339 106.742, 155.696 134 C 157.200 146.216, 157.392 173.304, 157.710 418.750 C 157.904 567.938, 158.431 690, 158.881 690 C 162.173 690, 176.976 676.696, 184.471 667 C 205.403 639.925, 223.569 592.166, 236.012 531.500 C 240.105 511.546, 244.189 496.298, 248.387 485.295 C 262.051 449.491, 281.220 432.450, 305.750 434.299 L 313 434.846 313 253.494 L 313 72.142 318.250 70.647 C 356.842 59.657, 421.505 52.844, 472.307 54.414 C 507.774 55.510, 530.812 57.956, 558.848 63.602 C 618.275 75.568, 663.555 98.651, 700.208 135.666 C 720.453 156.111, 732.453 172.638, 743.605 195.434 C 787.541 285.245, 757.727 403.986, 677.721 457.838 C 642.549 481.513, 603.017 493.611, 541.677 499.471 C 519.859 501.556, 477.085 503.228, 455.749 502.831 C 445.986 502.649, 437.998 502.881, 437.999 503.347 C 437.999 503.812, 444.726 515.750, 452.946 529.875 C 461.167 544, 468.176 556.296, 468.523 557.200 C 469.219 559.014, 470.007 559.101, 502.395 560.962 C 619.988 567.716, 713.265 610.920, 757.237 679 C 793.038 734.428, 804.937 802.454, 789.335 862.500 C 775.557 915.528, 738.047 963.079, 685.273 994.419 C 662.625 1007.868, 626.256 1020.919, 594.445 1027.011 L 582.390 1029.319 578.598 1041.210 C 574.149 1055.160, 566.065 1072.135, 558.311 1083.812 C 555.275 1088.384, 552.995 1092.328, 553.245 1092.578 C 553.495 1092.828, 565.355 1092.573, 579.600 1092.011 C 744.418 1085.505, 829.645 1058.205, 898.053 990.003 C 945.335 942.864, 975.773 881.338, 982.091 820.135 C 983.846 803.131, 982.766 765.706, 980.082 750.500 C 973.008 710.438, 959.354 678.706, 935.113 646 C 923.920 630.898, 897.912 604.913, 884.500 595.430 C 848.223 569.783, 807.449 552.607, 749.570 538.589 L 736.640 535.458 748.570 531.106 C 814.608 507.019, 860.695 473.045, 893.188 424.500 C 930.977 368.042, 942.267 296.276, 924.445 225.805 C 909.195 165.503, 868.292 109.676, 812 72.330 C 754.120 33.931, 681.716 12.302, 583.500 4.070 C 537.877 0.247, 518.193 0.002, 255.750 0.001 L 0 0 -0 14.878 M 291.356 489.750 C 289.596 493.031, 289.465 494.250, 290.312 499.500 C 291.816 508.830, 291.722 560.850, 290.180 572 C 285.154 608.360, 277.775 633.391, 263.503 662.500 C 248.320 693.464, 235.299 710.914, 204.554 741.500 C 192.944 753.050, 175.305 771.968, 165.356 783.539 C 155.407 795.110, 145.355 806.360, 143.017 808.539 C 129.501 821.135, 111.200 843.642, 99.936 861.521 C 55.022 932.812, 50.228 1023.633, 86.713 1112 C 94.250 1130.254, 105.331 1151.987, 107.106 1151.997 C 107.440 1151.999, 106.454 1147.519, 104.917 1142.041 C 93.192 1100.276, 91.650 1053.182, 100.563 1009.064 C 112.972 947.640, 148.538 879.522, 194.680 828.806 C 199.531 823.474, 209.990 811.999, 217.922 803.306 C 280.945 734.239, 317.526 671.684, 329.209 613 C 332.287 597.542, 332.549 563.126, 329.686 550.500 C 325.771 533.241, 319.824 518.739, 311.442 506.017 C 306.776 498.934, 295.550 486, 294.069 486 C 293.684 486, 292.463 487.688, 291.356 489.750 M 347.700 505.734 C 346.057 508.610, 344.938 514.224, 345.795 515.289 C 347.652 517.596, 354.039 536.033, 356.517 546.243 C 371.691 608.752, 346.498 687.163, 284.171 771.416 C 259.046 805.379, 219.721 848.870, 195.853 869.087 C 186.657 876.876, 181.249 883.377, 170.169 899.961 C 155.467 921.967, 145.429 944.915, 140.349 968.130 C 137.713 980.175, 137.720 1012.143, 140.360 1023.500 C 150.749 1068.189, 180.414 1110.104, 220.500 1136.734 C 261.801 1164.171, 302.969 1178.123, 343 1178.251 C 383.213 1178.380, 416.812 1166.155, 451.053 1138.936 C 466.008 1127.048, 486.697 1104.230, 494.166 1091.388 C 495.458 1089.166, 495.800 1087.992, 494.963 1088.647 C 460.434 1115.717, 421.567 1135.664, 390 1142.514 C 378.646 1144.978, 353.551 1145.579, 342.484 1143.651 C 298.902 1136.061, 262.725 1104.077, 235.990 1049.500 C 221.767 1020.465, 211.761 988.468, 213.912 978.896 C 216.493 967.407, 224.707 962.026, 239.685 962.010 C 254.308 961.994, 265.654 964.822, 294.405 975.645 C 342.799 993.864, 372.236 988.375, 380.989 959.500 C 381.655 957.300, 382.518 947.850, 382.906 938.500 C 383.745 918.242, 384.514 916.184, 395.133 905.757 C 402.647 898.379, 403.064 897.110, 400.854 888.333 L 399.707 883.780 404.773 878.845 C 411.990 871.814, 412.436 868.168, 407.913 853.145 C 405.523 845.204, 405.532 841.629, 407.955 836.291 C 410.540 830.596, 416.911 824.445, 427.332 817.582 C 442.857 807.358, 442.940 803.611, 428.035 785.895 C 406.034 759.743, 396.290 735.738, 403.589 725.667 C 406.123 722.170, 412.574 719.075, 418.885 718.327 C 423.484 717.782, 424 717.474, 424 715.267 C 424 713.654, 423.315 712.634, 422 712.290 C 419.267 711.575, 419.491 708.759, 422.572 705.097 C 425.335 701.813, 425.591 697.365, 423 697.686 C 422.175 697.788, 419.700 698.556, 417.500 699.392 C 412.615 701.249, 402.962 701.455, 400.793 699.750 C 399.347 698.614, 399.418 697.364, 401.567 686 C 409.781 642.581, 408.555 602.327, 398.063 570.948 C 391.899 552.511, 383.948 538.301, 372.457 525.184 C 363.547 515.012, 348.951 503.545, 347.700 505.734 M 843.347 1164.095 C 831.571 1166.062, 819.538 1172.584, 810.538 1181.876 L 805.575 1187 811.379 1187 C 816.510 1187, 817.633 1186.614, 821.075 1183.667 C 835.901 1170.977, 857.492 1168.382, 876.605 1176.993 C 879.963 1178.505, 884.517 1181.376, 886.726 1183.371 C 890.608 1186.879, 890.999 1187, 898.418 1187 L 906.093 1187 904.297 1184.611 C 903.309 1183.297, 900.025 1180.364, 897 1178.093 C 881.488 1166.448, 861.100 1161.129, 843.347 1164.095" stroke="none" fill="currentColor" fill-rule="evenodd"/>
</svg>